# xmcd CD database file
#
# Track frame offsets:
#	150
#	7910
#	24579
#	38971
#	51446
#	67796
#	79224
#	88491
#	104774
#	126479
#	136610
#	152387
#	176022
#	191776
#	203364
#
# Disc length: 3739 seconds
#
# Revision: 0
# Processed by: cddbd v1.5.2PL0 Copyright (c) Steve Scherf et al.
# Submitted via: CDex 1.70beta2
#
DISCID=c70e990f
DTITLE=Diana Gannett and David Murray - Duetti Dolci
DYEAR=2005
DGENRE=Jazz
TTITLE0=Evening prayer from "Hansel and Gretel"
TTITLE1=Romeo and Juliet
TTITLE2=Butterfly and Suzuki duel
TTITLE3=Tornami a dir che m'ami
TTITLE4=Recordare
TTITLE5=La ci darem la mano
TTITLE6=Duettino Sull'aria
TTITLE7=Moro ma prima in grazia
TTITLE8=Au fond du temple saint
TTITLE9=Duetto Parigi, o cara
TTITLE10=O Soave Faneiulla
TTITLE11=Bess You is my Woman
TTITLE12=Flower Song
TTITLE13=Intermezzo
TTITLE14=Grand Duo concertante
EXTD=YEAR: 2005
EXTT0=
EXTT1=
EXTT2=
EXTT3=
EXTT4=
EXTT5=
EXTT6=
EXTT7=
EXTT8=
EXTT9=
EXTT10=
EXTT11=
EXTT12=
EXTT13=
EXTT14=
PLAYORDER=
